Coordinates
version=1
nRows=15
nColumns=46
inDegrees=yes

Units are S.I. units (second, meters, Newtons, ...)
Angles are in degrees.

endheader
time	pelvis_tilt	pelvis_list	pelvis_rotation	pelvis_tx	pelvis_ty	pelvis_tz	bb_angle	bb_tx	bb_ty	bb_tz	hip_flexion_r	hip_adduction_r	hip_rotation_r	knee_angle_r	knee_angle_r_beta	ankle_angle_r	subtalar_angle_r	mtp_angle_r	crank_angle_r	hip_flexion_l	hip_adduction_l	hip_rotation_l	knee_angle_l	knee_angle_l_beta	ankle_angle_l	subtalar_angle_l	mtp_angle_l	crank_angle_l	lumbar_extension	lumbar_bending	lumbar_rotation	arm_flex_r	arm_add_r	arm_rot_r	elbow_flex_r	pro_sup_r	wrist_flex_r	wrist_dev_r	arm_flex_l	arm_add_l	arm_rot_l	elbow_flex_l	pro_sup_l	wrist_flex_l	wrist_dev_l
      5.00500000	    -23.98782464	     -4.20653709	     -5.98134741	      0.43154301	      1.16618946	     -0.19018544	      0.00000000	      0.50000000	      0.00000000	      0.25000000	     69.82096634	      7.71160222	      3.04615200	     94.31857024	      1.64616960	     20.07105875	    -10.08838445	      0.00000000	      0.00000000	     23.68365088	    -13.79237099	     -5.89214941	     29.12038153	      0.50824654	    -21.08105737	      3.34669130	      0.00000000	      0.00000000	    -54.66558555	      0.38077259	     13.04489198	     54.11008365	    -43.20719937	     49.55183232	     86.03808311	     60.84301161	      0.00000000	      0.00000000	     49.65204481	    -18.77019628	     27.91930451	     67.28307351	     51.56368651	      0.00000000	      0.00000000
      5.01000000	    -24.10236435	     -3.63698359	     -6.11660083	      0.43107443	      1.16791839	     -0.19017467	      0.00000000	      0.50000000	      0.00000000	      0.25000000	     68.75725301	      7.47150502	      3.42501827	     91.67456326	      1.60002297	     21.52328339	    -10.61396269	      0.00000000	      0.00000000	     25.14436110	    -13.34617227	     -5.14650479	     32.15703057	      0.56124606	    -21.62714566	      2.30071849	      0.00000000	      0.00000000	    -55.02931251	     -0.06552330	     12.78087114	     54.25742585	    -43.46943078	     49.24203842	     86.62092715	     60.85596037	      0.00000000	      0.00000000	     49.80712010	    -18.67497113	     27.62032709	     67.60028422	     51.61193468	      0.00000000	      0.00000000
      5.01500000	    -24.05786772	     -2.85921095	     -6.25916655	      0.43061837	      1.16964201	     -0.18956270	      0.00000000	      0.50000000	      0.00000000	      0.25000000	     67.52301599	      7.14967854	      3.96242392	     88.97691704	      1.55294016	     22.64399902	    -11.47359005	      0.00000000	      0.00000000	     26.48595588	    -12.73755578	     -4.61281434	     35.13970366	      0.61330353	    -22.46026836	      1.60630865	      0.00000000	      0.00000000	    -55.43954870	     -0.80929355	     12.36615272	     54.30702753	    -43.66368189	     48.94125434	     86.98347816	     60.85688444	      0.00000000	      0.00000000	     50.22861546	    -18.64520914	     27.24530765	     67.88997040	     51.62449409	      0.00000000	      0.00000000
      5.02000000	    -24.34025664	     -2.39710924	     -6.39652880	      0.43002769	      1.17091854	     -0.18937705	      0.00000000	      0.50000000	      0.00000000	      0.25000000	     66.57278882	      6.97184042	      4.22870640	     86.04651816	      1.50179505	     23.14277084	    -12.33981613	      0.00000000	      0.00000000	     28.29461365	    -12.35938432	     -3.68916103	     38.15729525	      0.66597044	    -23.61188434	      0.53245173	      0.00000000	      0.00000000	    -55.63166052	     -1.22301846	     12.27754759	     54.11954306	    -44.06419095	     48.45908995	     87.73698496	     60.88377478	      0.00000000	      0.00000000	     50.17173601	    -18.53287193	     26.70479206	     68.49239669	     51.68694701	      0.00000000	      0.00000000
      5.02500000	    -24.58611758	     -1.80235751	     -6.56662409	      0.42954466	      1.17209932	     -0.18890810	      0.00000000	      0.50000000	      0.00000000	      0.25000000	     65.62203017	      6.75025826	      4.66424471	     83.14618174	      1.45117463	     23.38307151	    -12.83137764	      0.00000000	      0.00000000	     30.06182667	    -11.96329599	     -3.08151893	     41.04616585	      0.71639074	    -24.99581040	      0.76192239	      0.00000000	      0.00000000	    -55.82499683	     -1.87588469	     12.17172380	     53.38956692	    -44.72828318	     47.57326574	     88.86290664	     60.88391728	      0.00000000	      0.00000000	     49.96807357	    -18.25390767	     25.87140023	     69.62909163	     51.82635463	      0.00000000	      0.00000000
      5.03000000	    -24.47246761	     -1.03573294	     -6.85831486	      0.42929641	      1.17360118	     -0.18825114	      0.00000000	      0.50000000	      0.00000000	      0.25000000	     64.30664138	      6.49512495	      5.39250504	     80.29195722	      1.40135902	     23.52185314	    -12.94856968	      0.00000000	      0.00000000	     31.24115553	    -11.32158949	     -2.72970960	     43.61306237	      0.76119154	    -26.34998096	      0.28635594	      0.00000000	      0.00000000	    -56.24437120	     -2.81354337	     11.76005207	     53.29888408	    -44.82881001	     47.28599836	     89.04741096	     60.85802805	      0.00000000	      0.00000000	     50.33888046	    -18.16712337	     25.66030641	     69.90264331	     51.85132450	      0.00000000	      0.00000000
      5.03500000	    -24.44851885	     -0.38758305	     -7.07992121	      0.42900651	      1.17480507	     -0.18779445	      0.00000000	      0.50000000	      0.00000000	      0.25000000	     63.12336193	      6.20025491	      6.05191099	     77.46161890	      1.35196029	     23.15995958	    -13.05143523	      0.00000000	      0.00000000	     32.49709791	    -10.62149970	     -2.11683602	     46.07534653	      0.80416650	    -27.79464358	     -0.75087949	      0.00000000	      0.00000000	    -56.57598770	     -3.58862266	     11.42626621	     53.05688086	    -44.97784758	     46.89906007	     89.36691854	     60.83274432	      0.00000000	      0.00000000	     50.44464889	    -18.09281945	     25.48246202	     70.35423459	     51.91577839	      0.00000000	      0.00000000
      5.04000000	    -24.25835427	      0.45855583	     -7.34230631	      0.42910649	      1.17610169	     -0.18745801	      0.00000000	      0.50000000	      0.00000000	      0.25000000	     61.81332619	      5.69117785	      6.88667198	     74.72735197	      1.30423833	     22.70628565	    -12.66701273	      0.00000000	      0.00000000	     33.43810923	     -9.76403687	     -1.80879861	     48.35778368	      0.84400254	    -28.68545840	     -0.82416390	      0.00000000	      0.00000000	    -56.95817807	     -4.44876198	     10.87661300	     52.89631266	    -45.03267024	     46.85874369	     89.41418896	     60.83078526	      0.00000000	      0.00000000	     50.44010225	    -18.00529984	     25.49054380	     70.43943217	     51.93247114	      0.00000000	      0.00000000
      5.04500000	    -24.18578204	      1.03413880	     -7.63956334	      0.42889877	      1.17689395	     -0.18752130	      0.00000000	      0.50000000	      0.00000000	      0.25000000	     60.68969807	      5.27342295	      7.42297591	     72.05824762	      1.25765367	     21.86958078	    -12.11458986	      0.00000000	      0.00000000	     34.63643496	     -9.16562980	     -1.57673458	     50.89005251	      0.88819897	    -29.90535583	     -2.38069554	      0.00000000	      0.00000000	    -57.32932707	     -5.17763914	     10.54361240	     52.74112981	    -45.04234610	     46.38099393	     89.81970130	     60.79467749	      0.00000000	      0.00000000	     50.52925924	    -18.15749221	     25.27175461	     71.29300061	     52.05838428	      0.00000000	      0.00000000
      5.05000000	    -23.92929894	      1.86093279	     -7.86456809	      0.42901391	      1.17781070	     -0.18724364	      0.00000000	      0.50000000	      0.00000000	      0.25000000	     59.37681970	      4.62458301	      8.09820176	     69.46477260	      1.21238900	     21.15131135	    -11.59306754	      0.00000000	      0.00000000	     35.49876903	     -8.33076931	     -1.45968288	     53.20055789	      0.92852490	    -30.35822762	     -2.40291532	      0.00000000	      0.00000000	    -57.70630610	     -6.11776541	      9.89782049	     52.58000172	    -45.09231691	     46.35967843	     89.82575630	     60.79026305	      0.00000000	      0.00000000	     50.57168411	    -18.06182231	     25.30111246	     71.38594006	     52.07690006	      0.00000000	      0.00000000
      5.05500000	    -23.62908767	      2.51763933	     -8.00040079	      0.42894389	      1.17854265	     -0.18716583	      0.00000000	      0.50000000	      0.00000000	      0.25000000	     58.00095700	      3.96656371	      8.56522145	     66.84937495	      1.16674170	     19.96462146	    -11.09032250	      0.00000000	      0.00000000	     36.35277896	     -7.55975508	     -1.25057818	     55.61995480	      0.97075134	    -30.47214785	     -3.25862084	      0.00000000	      0.00000000	    -58.20823868	     -6.91129944	      9.25109002	     52.49667384	    -45.00948548	     46.07461874	     89.95756142	     60.75979343	      0.00000000	      0.00000000	     51.00465103	    -18.14878372	     25.19978384	     71.81546451	     52.13328102	      0.00000000	      0.00000000
      5.06000000	    -23.32489176	      3.24052768	     -8.03215227	      0.42906225	      1.17904863	     -0.18709691	      0.00000000	      0.50000000	      0.00000000	      0.25000000	     56.59373574	      3.21182121	      9.08174466	     64.27076482	      1.12173646	     18.78398866	    -10.64963980	      0.00000000	      0.00000000	     37.17200513	     -6.70190177	     -1.08761963	     57.96268420	      1.01163968	    -30.43106988	     -3.84113164	      0.00000000	      0.00000000	    -58.63965611	     -7.63810557	      8.47565778	     52.30443831	    -44.91427413	     45.84212137	     90.04856702	     60.73384072	      0.00000000	      0.00000000	     51.24938848	    -18.16701301	     25.24786065	     72.18215359	     52.19719789	      0.00000000	      0.00000000
      5.06500000	    -22.99989513	      3.97445618	     -8.05623922	      0.42916474	      1.17916606	     -0.18710283	      0.00000000	      0.50000000	      0.00000000	      0.25000000	     55.16623679	      2.43389276	      9.59673510	     61.72797947	      1.07735648	     17.50212124	    -10.31475620	      0.00000000	      0.00000000	     37.97462923	     -5.84969148	     -1.00890825	     60.35315223	      1.05336122	    -30.10583148	     -4.36065851	      0.00000000	      0.00000000	    -59.06138267	     -8.36365662	      7.66731845	     52.08845128	    -44.84916060	     45.57766337	     90.11529184	     60.70261739	      0.00000000	      0.00000000	     51.41822916	    -18.26481627	     25.28775729	     72.47400658	     52.24967470	      0.00000000	      0.00000000
      5.07000000	    -22.80257207	      4.65248275	     -7.91098884	      0.42941625	      1.17883224	     -0.18715402	      0.00000000	      0.50000000	      0.00000000	      0.25000000	     53.80196038	      1.63028681	     10.03752940	     59.17227682	      1.03275106	     15.94332028	    -10.52176499	      0.00000000	      0.00000000	     38.94139142	     -4.99166952	     -0.84371032	     62.78841173	      1.09586452	    -29.53418769	     -4.86084901	      0.00000000	      0.00000000	    -59.40858632	     -8.97754321	      6.58000964	     50.81290568	    -43.97189760	     43.59523997	     90.40518624	     60.39619234	      0.00000000	      0.00000000	     51.05891263	    -19.11806992	     25.20127894	     74.04888535	     52.55228924	      0.00000000	      0.00000000
      5.07500000	    -22.55889343	      5.47604753	     -7.76367824	      0.42936545	      1.17813214	     -0.18740823	      0.00000000	      0.50000000	      0.00000000	      0.25000000	     52.50024156	      0.62181194	     10.47743719	     56.74310327	      0.99035398	     14.66814163	    -10.05421409	      0.00000000	      0.00000000	     39.89788560	     -3.97073069	     -0.77299545	     65.25480999	      1.13891129	    -28.67339906	     -5.32953291	      0.00000000	      0.00000000	    -59.59421763	     -9.67253921	      5.69171510	     50.59852086	    -44.08425594	     43.51943540	     90.38578371	     60.38142191	      0.00000000	      0.00000000	     51.25889561	    -19.04591033	     25.25565977	     74.13286883	     52.57128666	      0.00000000	      0.00000000
